<?xml version="1.0" ?><!DOCTYPE svg  PUBLIC '-//W3C//DTD SVG 1.1//EN'  'http://www.w3.org/Graphics/SVG/1.1/DTD/svg11.dtd'><svg enable-background="new 0 0 512 512" height="512px" version="1.1" viewBox="0 0 512 512" width="512px" xml:space="preserve" xmlns="http://www.w3.org/2000/svg" xmlns:xlink="http://www.w3.org/1999/xlink"><g id="_x34_"><polyline fill="#4555A5" points="476.887,129.775 476.887,385.457 256.389,511.994 35.113,385.457 35.113,129.775 256.389,0.006     "/><polygon fill="#3F4DA1" points="256.389,0.006 256.127,0.159 256.127,511.845 256.389,511.994 476.887,385.457 476.887,129.775     "/><g><path d="M311.836,214.143h-39.359v-25.834c0-9.681,6.41-11.95,10.949-11.95c4.508,0,27.76,0,27.76,0v-42.606    l-38.244-0.159c-42.463,0-52.134,31.788-52.134,52.129v28.419H196.25v43.902h24.557c0,56.361,0,124.275,0,124.275h51.669    c0,0,0-68.58,0-124.275h34.842L311.836,214.143L311.836,214.143z" fill="#33429B"/><path d="M315.75,210.229h-39.359v-25.835c0-9.68,6.41-11.949,10.949-11.949c4.508,0,27.76,0,27.76,0v-42.606    l-38.244-0.159c-42.463,0-52.133,31.788-52.133,52.128v28.42h-24.557v43.902h24.557c0,56.361,0,124.275,0,124.275h51.668    c0,0,0-68.58,0-124.275h34.842L315.75,210.229L315.75,210.229z" fill="#FFFFFF"/></g></g></svg>